# xmcd CD database file
#
# Track frame offsets:
#	150
#	11250
#	20453
#	35508
#	50229
#	63032
#	77791
#	89958
#	103828
#	118487
#	131249
#	146648
#	160344
#	174357
#	188797
#
# Disc length: 2711 seconds
#
# Revision: 0
# Processed by: cddbd v1.5.1PL0 Copyright (c) Steve Scherf et al.
# Submitted via: CDex 1.51
#
DISCID=d70a950f
DTITLE=Peggy Lee - Jazz after hours with...Peggy Lee
DYEAR=2001
DGENRE=Jazz
TTITLE0=You was right baby
TTITLE1=Let's do it (Let's fall in love)
TTITLE2=I Don't know enough about you
TTITLE3=Blues in the night
TTITLE4=Elmer's tune
TTITLE5=How long has this been going on
TTITLE6=That old feeling
TTITLE7=How deep the ocean
TTITLE8=I got it bad (and that ain't good)
TTITLE9=It's a good day
TTITLE10=All I need is you
TTITLE11=I threw a kiss in the ocean
TTITLE12=Waitin' for the train to come in
TTITLE13=On the sunny side of the street
TTITLE14=Why don't you do right
EXTD=YEAR: 2001
EXTT0=
EXTT1=
EXTT2=
EXTT3=
EXTT4=
EXTT5=
EXTT6=
EXTT7=
EXTT8=
EXTT9=
EXTT10=
EXTT11=
EXTT12=
EXTT13=
EXTT14=
PLAYORDER=
